 <svg  version="1.0" xmlns="http://www.w3.org/2000/svg"  width="500.000000pt" height="500.000000pt" viewBox="0 0 500.000000 500.000000"  preserveAspectRatio="xMidYMid meet">  <g transform="translate(0.000000,500.000000) scale(0.100000,-0.100000)" fill="#530080" stroke="none"> <path d="M1511 4070 l-114 -5 168 -167 167 -167 442 -3 442 -3 59 -30 c50 -25 63 -39 87 -84 24 -46 28 -64 28 -140 -1 -137 -39 -203 -139 -243 -48 -18 -81 -22 -237 -26 l-181 -4 -21 -72 c-12 -39 -32 -115 -46 -168 l-24 -98 204 0 c113 0 204 4 204 9 0 5 7 12 16 15 14 5 15 4 4 -9 -11 -13 -9 -15 13 -15 30 0 103 -31 134 -57 12 -10 32 -38 45 -63 19 -37 23 -60 23 -136 0 -143 -44 -214 -154 -252 -22 -8 -108 -12 -236 -12 -199 0 -203 0 -218 -22 -8 -13 -37 -48 -63 -80 -27 -31 -74 -86 -104 -123 -30 -37 -63 -76 -73 -88 l-19 -22 54 -3 c29 -2 206 -2 393 1 315 3 345 5 414 26 114 34 223 102 286 179 63 76 82 112 106 207 54 209 22 436 -80 561 l-49 61 37 44 c78 91 110 190 118 369 5 108 3 137 -16 209 -28 109 -49 147 -121 224 -85 91 -202 149 -355 177 -63 11 -989 19 -1194 10z m1483 -1328 c3 -5 -10 -8 -29 -8 -18 1 -31 4 -28 9 6 10 51 9 57 -1z m-82 -34 c-5 -7 -12 -24 -15 -38 l-4 -25 -2 26 c0 14 4 30 11 37 16 16 23 15 10 0z m-97 -8 c3 -5 4 -10 1 -10 -3 0 -8 5 -11 10 -3 6 -4 10 -1 10 3 0 8 -4 11 -10z m162 -7 c-4 -3 -7 0 -7 7 0 7 3 10 7 7 3 -4 3 -10 0 -14z m-2 -23 c3 5 11 10 17 10 7 0 6 -6 -2 -15 -16 -20 -36 -19 -44 1 -5 14 -4 15 8 5 10 -8 16 -9 21 -1z m-68 -47 c-4 -3 -7 0 -7 7 0 7 3 10 7 7 3 -4 3 -10 0 -14z m90 0 c-4 -3 -10 -3 -14 0 -3 4 0 7 7 7 7 0 10 -3 7 -7z"/> <path d="M1735 3648 c-12 -33 -115 -363 -138 -443 -52 -178 -130 -434 -193 -633 -35 -111 -64 -209 -64 -217 0 -8 -16 -63 -36 -122 -37 -113 -64 -207 -64 -223 0 -6 43 -10 98 -10 54 0 101 -3 104 -6 7 -7 -2 -44 -59 -223 -24 -79 -43 -152 -40 -162 3 -10 1 -19 -3 -21 -4 -2 -10 -12 -14 -24 -4 -15 -2 -21 9 -21 14 0 20 20 17 59 -1 15 2 16 23 6 14 -6 27 -9 29 -7 2 2 25 45 51 94 26 50 52 96 58 103 10 13 20 30 81 138 21 38 65 111 97 162 33 50 59 96 59 102 0 5 -48 11 -109 12 l-109 3 25 54 c15 32 28 48 33 41 4 -7 17 -9 33 -5 22 6 25 4 20 -13 -2 -11 0 -23 6 -26 7 -4 11 1 11 13 0 29 26 26 34 -3 5 -21 11 -24 47 -21 34 2 40 0 36 -15 -3 -13 1 -16 22 -13 18 3 22 2 13 -5 -11 -7 -11 -10 3 -15 9 -4 14 -3 11 1 -2 4 -1 14 5 22 6 11 9 12 9 2 0 -7 8 -12 18 -10 9 1 23 -1 30 -5 15 -10 32 -1 32 18 0 7 10 12 23 11 31 -1 31 -36 0 -36 -16 0 -21 -4 -16 -16 3 -9 0 -20 -8 -25 -11 -7 -10 -9 5 -9 16 0 17 -2 5 -17 -11 -14 -8 -13 9 2 14 11 21 26 19 37 -3 10 -1 16 4 12 5 -3 9 0 9 5 0 6 7 11 16 11 14 0 14 3 4 16 -8 8 -9 14 -4 13 22 -4 35 2 28 13 -4 6 -3 8 4 4 6 -3 24 11 41 31 l31 38 -92 3 c-51 2 -97 7 -102 12 -5 5 7 57 30 127 21 65 39 123 39 128 0 6 3 12 6 15 3 3 10 23 16 45 17 66 113 375 139 450 14 39 34 106 45 150 11 44 33 118 49 165 30 90 70 223 70 234 0 3 -124 6 -275 6 -211 0 -277 -3 -280 -12z m32 -905 c-4 -3 -10 -3 -14 0 -3 4 0 7 7 7 7 0 10 -3 7 -7z m160 0 c-4 -3 -10 -3 -14 0 -3 4 0 7 7 7 7 0 10 -3 7 -7z m-195 -11 c-6 -5 -19 -17 -28 -28 -8 -10 -12 -12 -8 -4 12 26 26 40 38 40 7 0 7 -3 -2 -8z m75 -29 c-4 -3 -7 0 -7 7 0 7 3 10 7 7 3 -4 3 -10 0 -14z m-40 0 c-4 -3 -10 -3 -14 0 -3 4 0 7 7 7 7 0 10 -3 7 -7z m-31 -40 c1 -32 -1 -34 -9 -16 -8 18 -5 53 5 53 2 0 3 -17 4 -37z m32 4 c13 5 14 3 5 -7 -13 -14 -33 -5 -32 13 0 9 2 9 5 0 3 -7 13 -9 22 -6z m89 -9 c-3 -8 -6 -5 -6 6 -1 11 2 17 5 13 3 -3 4 -12 1 -19z m-136 -45 c8 -6 28 -13 44 -16 l30 -4 -32 -2 c-35 -1 -74 30 -72 58 0 11 3 10 9 -4 4 -12 14 -26 21 -32z m104 -2 c0 -8 -6 -15 -13 -17 -7 -1 -8 0 -2 3 21 10 9 22 -27 26 l-38 4 40 -1 c27 -1 40 -6 40 -15z m102 12 c-4 -3 -10 -3 -14 0 -3 4 0 7 7 7 7 0 10 -3 7 -7z m-2 -19 c9 3 13 2 10 -4 -10 -15 -31 -12 -46 8 -13 15 -12 16 3 3 10 -7 25 -11 33 -7z m30 -294 c17 -8 16 -9 -7 -7 -15 2 -30 6 -34 10 -10 10 17 8 41 -3z m-68 -37 c-4 -3 -10 -3 -14 0 -3 4 0 7 7 7 7 0 10 -3 7 -7z"/> <path d="M1577 2269 c7 -7 15 -10 18 -7 3 3 -2 9 -12 12 -14 6 -15 5 -6 -5z"/> <path d="M1855 2200 c3 -5 8 -10 11 -10 2 0 4 5 4 10 0 6 -5 10 -11 10 -5 0 -7 -4 -4 -10z"/> <path d="M1313 1513 c4 -3 10 -3 14 0 3 4 0 7 -7 7 -7 0 -10 -3 -7 -7z"/> <path d="M1308 1493 c7 -3 16 -2 19 1 4 3 -2 6 -13 5 -11 0 -14 -3 -6 -6z"/> <path d="M1297 1473 c-4 -3 -7 -11 -7 -17 0 -6 5 -5 12 2 6 6 9 14 7 17 -3 3 -9 2 -12 -2z"/> </g> </svg> 